<svg xmlns="http://www.w3.org/2000/svg" width="135" height="135" viewBox="0 0 135 135">
  <g id="Grupo_60914" data-name="Grupo 60914" transform="translate(-311 -1006)">
    <circle id="Elipse_5053" data-name="Elipse 5053" cx="67.5" cy="67.5" r="67.5" transform="translate(311 1006)" fill="#bf3976"/>
    <g id="Grupo_60271" data-name="Grupo 60271" transform="translate(334 1029)">
      <path id="Trazado_107527" data-name="Trazado 107527" d="M349.834,441.674a14.393,14.393,0,0,1-2.926-.3,13.793,13.793,0,0,1,2.028-27.236v-5.556a52.291,52.291,0,0,1,5.543-52.243l2.249-3.069a1.607,1.607,0,0,1,2.9.95v56.663a27.278,27.278,0,0,0,2.785,11.329,13.779,13.779,0,0,1-12.581,19.466Zm.022-24.359a10.535,10.535,0,0,0-8.209,3.91,10.677,10.677,0,0,0-2.128,8.959,10.516,10.516,0,0,0,8.044,8.042,10.663,10.663,0,0,0,8.959-2.126,10.544,10.544,0,0,0,3.91-8.209,10.406,10.406,0,0,0-.942-4.353,30.382,30.382,0,0,1-3.073-12.66V359.143A49.071,49.071,0,0,0,352,407.564a1.615,1.615,0,0,1,.145.667v7.511a1.61,1.61,0,0,1-.5,1.166,1.59,1.59,0,0,1-1.192.437l-.226-.014C350.1,417.324,349.981,417.314,349.855,417.314Z" transform="translate(-305.324 -352.609)" fill="#fff"/>
      <path id="Trazado_107528" data-name="Trazado 107528" d="M346.7,401.613a7.423,7.423,0,1,1,7.424-7.422A7.43,7.43,0,0,1,346.7,401.613Zm0-11.633a4.211,4.211,0,1,0,4.212,4.212A4.215,4.215,0,0,0,346.7,389.979Z" transform="translate(-302.165 -318.909)" fill="#fff"/>
      <path id="Trazado_107529" data-name="Trazado 107529" d="M364.6,387.513H322.2a1.606,1.606,0,0,1-.95-2.9l3.067-2.249a52.018,52.018,0,0,1,37.576-9.653,1.606,1.606,0,0,1,1.389,1.387,49.042,49.042,0,0,0,2.811,11.236,1.6,1.6,0,0,1-1.5,2.179Zm-37.469-3.21h35.19a52.473,52.473,0,0,1-2.044-8.546A48.792,48.792,0,0,0,327.127,384.3Z" transform="translate(-320.595 -333.207)" fill="#fff"/>
      <path id="Trazado_107530" data-name="Trazado 107530" d="M370.5,395.657a13.65,13.65,0,0,1-5.682-1.228,27.258,27.258,0,0,0-11.329-2.787h-5.568a1.606,1.606,0,0,1-1.605-1.605v-8.7a1.607,1.607,0,0,1,2.179-1.5c.9.346,1.8.711,2.694,1.109h5.556a13.728,13.728,0,0,1,5.066-9.78,13.786,13.786,0,1,1,8.689,24.489Zm-20.972-7.225h3.961a30.4,30.4,0,0,1,12.663,3.073,10.424,10.424,0,0,0,4.349.94,10.54,10.54,0,0,0,8.212-3.91,10.667,10.667,0,0,0,2.124-8.958,10.508,10.508,0,0,0-8.042-8.044,10.687,10.687,0,0,0-8.96,2.126,10.545,10.545,0,0,0-3.91,8.211c0,.125.01.248.018.372l.014.224a1.6,1.6,0,0,1-1.6,1.695h-7.511a1.6,1.6,0,0,1-.665-.145c-.217-.1-.433-.195-.65-.29Zm20.972.862a7.423,7.423,0,1,1,7.424-7.424A7.432,7.432,0,0,1,370.5,389.294Zm0-11.635a4.212,4.212,0,1,0,4.213,4.212A4.215,4.215,0,0,0,370.5,377.659Z" transform="translate(-295.221 -337.337)" fill="#fff"/>
      <circle id="Elipse_5054" data-name="Elipse 5054" cx="2.141" cy="2.141" r="2.141" transform="translate(45.161 44.548)" fill="#fff"/>
    </g>
  </g>
</svg>
