<svg xmlns="http://www.w3.org/2000/svg" width="135" height="135" viewBox="0 0 135 135">
  <g id="Grupo_60915" data-name="Grupo 60915" transform="translate(-727 -1006)">
    <circle id="Elipse_5055" data-name="Elipse 5055" cx="67.5" cy="67.5" r="67.5" transform="translate(727 1006)" fill="#bf3976"/>
    <g id="Grupo_60270" data-name="Grupo 60270" transform="translate(752 1039)">
      <path id="Trazado_107514" data-name="Trazado 107514" d="M392.914,383.355a8.456,8.456,0,0,1-8.445-8.447V359.147a8.446,8.446,0,1,1,16.892,0v15.761A8.457,8.457,0,0,1,392.914,383.355Zm0-29.443a5.24,5.24,0,0,0-5.233,5.235v15.761a5.234,5.234,0,1,0,10.467,0V359.147A5.24,5.24,0,0,0,392.914,353.912Z" transform="translate(-380.75 -350.7)" fill="#fff"/>
      <path id="Trazado_107515" data-name="Trazado 107515" d="M445.758,399.5H421.222a1.607,1.607,0,0,1-1.607-1.607V376.255a1.443,1.443,0,0,0-1.44-1.442H393.267a1.606,1.606,0,1,1,0-3.212h24.908a4.659,4.659,0,0,1,4.653,4.655v20.031h21.324V368.044a12.121,12.121,0,0,0-12.106-12.108H392.651a1.605,1.605,0,1,1,0-3.21h39.394a15.335,15.335,0,0,1,15.319,15.318v29.846A1.6,1.6,0,0,1,445.758,399.5Z" transform="translate(-374.261 -348.701)" fill="#fff"/>
      <path id="Trazado_107516" data-name="Trazado 107516" d="M415.124,370.75a6.885,6.885,0,1,1,6.884-6.885A6.892,6.892,0,0,1,415.124,370.75Zm0-10.559a3.673,3.673,0,1,0,3.671,3.673A3.676,3.676,0,0,0,415.124,360.191Z" transform="translate(-357.299 -344.505)" fill="#fff"/>
      <path id="Trazado_107517" data-name="Trazado 107517" d="M420.7,370.267H410.439a1.606,1.606,0,0,1,0-3.212H420.7a1.606,1.606,0,1,1,0,3.212Z" transform="translate(-356.712 -334.565)" fill="#fff"/>
      <path id="Trazado_107518" data-name="Trazado 107518" d="M420.7,374.047H410.439a1.606,1.606,0,0,1,0-3.212H420.7a1.606,1.606,0,1,1,0,3.212Z" transform="translate(-356.712 -330.835)" fill="#fff"/>
      <path id="Trazado_107519" data-name="Trazado 107519" d="M413.853,361.921H392.962a1.606,1.606,0,1,1,0-3.212h20.891a1.606,1.606,0,0,1,0,3.212Z" transform="translate(-373.956 -342.798)" fill="#fff"/>
      <path id="Trazado_107520" data-name="Trazado 107520" d="M425.8,386.99a5.106,5.106,0,0,1-5.1-5.1V361.74a5.1,5.1,0,1,1,10.2,0v20.148A5.107,5.107,0,0,1,425.8,386.99Zm0-27.139a1.892,1.892,0,0,0-1.889,1.889v20.148a1.888,1.888,0,1,0,3.776,0V361.74A1.891,1.891,0,0,0,425.8,359.851Z" transform="translate(-345.007 -344.841)" fill="#fff"/>
      <path id="Trazado_107521" data-name="Trazado 107521" d="M425.184,372.368h-5.8a1.606,1.606,0,0,1-1.607-1.605v-7.6a1.606,1.606,0,0,1,1.607-1.605h5.8a1.6,1.6,0,0,1,1.605,1.605v7.6A1.6,1.6,0,0,1,425.184,372.368Zm-4.194-3.212h2.588v-4.386H420.99Z" transform="translate(-347.888 -339.989)" fill="#fff"/>
      <path id="Trazado_107522" data-name="Trazado 107522" d="M454.094,396.154H384.2a1.606,1.606,0,0,1-1.607-1.605V384.288a9.646,9.646,0,0,1,9.637-9.635h61.86a1.6,1.6,0,0,1,1.605,1.605v18.29A1.6,1.6,0,0,1,454.094,396.154Zm-68.285-3.21h66.678V377.865H392.234a6.43,6.43,0,0,0-6.425,6.423Z" transform="translate(-382.597 -327.068)" fill="#fff"/>
      <path id="Trazado_107523" data-name="Trazado 107523" d="M389.517,379.29a1.6,1.6,0,0,1-1.605-1.605V367.126a1.606,1.606,0,0,1,3.212,0v10.559A1.606,1.606,0,0,1,389.517,379.29Z" transform="translate(-377.353 -336.078)" fill="#fff"/>
      <path id="Trazado_107524" data-name="Trazado 107524" d="M415.8,382.468h-4.015a1.606,1.606,0,0,1,0-3.212H415.8a1.606,1.606,0,1,1,0,3.212Z" transform="translate(-355.387 -322.527)" fill="#fff"/>
      <path id="Trazado_107525" data-name="Trazado 107525" d="M418.779,382.468h-7.094a1.606,1.606,0,0,1,0-3.212h7.094a1.606,1.606,0,0,1,0,3.212Zm-14.184,0H397.5a1.606,1.606,0,0,1,0-3.212H404.6a1.606,1.606,0,0,1,0,3.212Z" transform="translate(-369.476 -322.527)" fill="#fff"/>
      <path id="Trazado_107526" data-name="Trazado 107526" d="M395.927,382.468h-4.015a1.606,1.606,0,1,1,0-3.212h4.015a1.606,1.606,0,0,1,0,3.212Z" transform="translate(-374.992 -322.527)" fill="#fff"/>
    </g>
  </g>
</svg>
