<svg xmlns="http://www.w3.org/2000/svg" xmlns:xlink="http://www.w3.org/1999/xlink" width="276.628" height="406.625" viewBox="0 0 276.628 406.625">
  <defs>
    <linearGradient id="linear-gradient" y1="0.5" x2="1" y2="0.5" gradientUnits="objectBoundingBox">
      <stop offset="0.268" stop-color="#4a1c40"/>
      <stop offset="0.986" stop-color="#53244e"/>
      <stop offset="1" stop-color="#54254f"/>
    </linearGradient>
    <linearGradient id="linear-gradient-2" x1="0.5" y1="1" x2="0.5" y2="0" xlink:href="#linear-gradient"/>
    <linearGradient id="linear-gradient-4" x1="3.174" y1="1.306" x2="-0.845" y2="0.188" gradientUnits="objectBoundingBox">
      <stop offset="0" stop-color="#4625ac"/>
      <stop offset="0.188" stop-color="#502ab6"/>
      <stop offset="0.686" stop-color="#6737cc"/>
      <stop offset="1" stop-color="#703cd5"/>
    </linearGradient>
    <linearGradient id="linear-gradient-5" x1="3.174" y1="1.333" x2="-0.845" y2="0.115" xlink:href="#linear-gradient-4"/>
    <linearGradient id="linear-gradient-6" x1="1.934" y1="1.083" x2="-0.241" y2="0.179" xlink:href="#linear-gradient-4"/>
    <linearGradient id="linear-gradient-7" x1="-26.649" y1="0.97" x2="-30.669" y2="-0.148" xlink:href="#linear-gradient-4"/>
    <linearGradient id="linear-gradient-8" x1="-26.649" y1="0.967" x2="-30.669" y2="-0.251" xlink:href="#linear-gradient-4"/>
    <linearGradient id="linear-gradient-9" x1="1.51" y1="0.955" x2="-0.665" y2="0.051" xlink:href="#linear-gradient-4"/>
    <linearGradient id="linear-gradient-10" x1="9.771" y1="1.327" x2="-11.424" y2="-0.664" xlink:href="#linear-gradient-4"/>
    <linearGradient id="linear-gradient-11" x1="3.271" y1="4.973" x2="-2.079" y2="-3.547" xlink:href="#linear-gradient-4"/>
    <linearGradient id="linear-gradient-12" x1="2.131" y1="3.267" x2="-2.866" y2="-5.018" xlink:href="#linear-gradient-4"/>
    <linearGradient id="linear-gradient-13" x1="4.138" y1="19.833" x2="-1.663" y2="-10.995" xlink:href="#linear-gradient-4"/>
    <linearGradient id="linear-gradient-14" x1="0.826" y1="1.083" x2="0.168" y2="-0.076" gradientUnits="objectBoundingBox">
      <stop offset="0" stop-color="#4a1c40"/>
      <stop offset="0.678" stop-color="#4f2148"/>
      <stop offset="1" stop-color="#54254f"/>
    </linearGradient>
    <linearGradient id="linear-gradient-15" x1="1.037" y1="2.121" x2="0.428" y2="0.025" gradientUnits="objectBoundingBox">
      <stop offset="0" stop-color="#c5205c"/>
      <stop offset="1" stop-color="#fb446c"/>
    </linearGradient>
    <linearGradient id="linear-gradient-16" x1="-16.442" y1="0.04" x2="-16.399" y2="1.221" xlink:href="#linear-gradient-14"/>
    <linearGradient id="linear-gradient-17" x1="0.581" y1="0.98" x2="0.343" y2="-0.024" xlink:href="#linear-gradient-15"/>
    <linearGradient id="linear-gradient-18" x1="4.136" y1="0.11" x2="4.289" y2="1.053" gradientUnits="objectBoundingBox">
      <stop offset="0" stop-color="#171721"/>
      <stop offset="1" stop-color="#29283a"/>
    </linearGradient>
    <linearGradient id="linear-gradient-19" x1="-47.03" y1="1.02" x2="-47.494" y2="-1.617" xlink:href="#linear-gradient-15"/>
    <linearGradient id="linear-gradient-20" x1="-12.827" y1="1.019" x2="-13.47" y2="0.093" gradientUnits="objectBoundingBox">
      <stop offset="0" stop-color="#ff7a83"/>
      <stop offset="0.191" stop-color="#fe7e83"/>
      <stop offset="0.397" stop-color="#fe8b83"/>
      <stop offset="0.611" stop-color="#fea083"/>
      <stop offset="0.827" stop-color="#febe84"/>
      <stop offset="0.959" stop-color="#fed585"/>
    </linearGradient>
    <linearGradient id="linear-gradient-21" x1="-32.576" y1="1.36" x2="-32.851" y2="-0.08" xlink:href="#linear-gradient-15"/>
    <linearGradient id="linear-gradient-22" x1="-15.079" y1="1.16" x2="-15.741" y2="-1.21" xlink:href="#linear-gradient-20"/>
    <linearGradient id="linear-gradient-23" x1="-32.481" y1="2.048" x2="-34.065" y2="-0.237" xlink:href="#linear-gradient-20"/>
  </defs>
  <g id="Grupo_55413" data-name="Grupo 55413" transform="translate(-140.37 -8.194)">
    <g id="Grupo_55409" data-name="Grupo 55409" transform="translate(173.353 8.194)">
      <g id="Grupo_55406" data-name="Grupo 55406" transform="translate(0 0.001)">
        <g id="Grupo_55403" data-name="Grupo 55403" transform="translate(73.661)">
          <path id="Trazado_106803" data-name="Trazado 106803" d="M543.376,114.49v33.818c0,.932-1.139,1.806-3.127,2.558-4.041,1.526-11.6,2.554-20.248,2.554s-16.2-1.028-20.244-2.554c-1.989-.752-3.127-1.626-3.127-2.558V114.49Z" transform="translate(-496.629 -109.376)" fill="#30112a"/>
          <path id="Trazado_106804" data-name="Trazado 106804" d="M543.376,109.172c0,.931-1.138,1.8-3.127,2.556-4.042,1.528-11.6,2.557-20.247,2.557s-16.2-1.029-20.246-2.557c-1.989-.752-3.127-1.625-3.127-2.556,0-2.824,10.464-5.113,23.373-5.113S543.376,106.348,543.376,109.172Z" transform="translate(-496.629 -104.059)" fill="url(#linear-gradient)"/>
        </g>
        <path id="Trazado_106805" data-name="Trazado 106805" d="M541.322,852.962v14.152c0,7.816-33.667,14.152-75.194,14.152s-75.194-6.336-75.194-14.152V852.962c0-7.817,33.667-14.153,75.194-14.153S541.322,845.145,541.322,852.962Z" transform="translate(-369.092 -478.575)" fill="#30112a"/>
        <path id="Trazado_106806" data-name="Trazado 106806" d="M541.322,852.962c0,2.577-3.662,4.994-10.06,7.075-13,4.231-37.3,7.077-65.135,7.077s-52.133-2.846-65.134-7.077c-6.4-2.081-10.06-4.5-10.06-7.075,0-7.817,33.667-14.153,75.194-14.153S541.322,845.145,541.322,852.962Z" transform="translate(-369.092 -478.575)" fill="url(#linear-gradient-2)"/>
        <path id="Trazado_106807" data-name="Trazado 106807" d="M522.511,725.151v68.521c0,.426.52.825,1.429,1.168a37.222,37.222,0,0,0,18.509,0c.909-.344,1.43-.743,1.43-1.168V725.151Z" transform="translate(-436.16 -420.641)" fill="#30112a"/>
        <path id="Trazado_106808" data-name="Trazado 106808" d="M543.879,722.721c0,.426-.521.825-1.43,1.168a37.222,37.222,0,0,1-18.509,0c-.909-.344-1.429-.743-1.429-1.168,0-1.291,4.784-2.337,10.684-2.337S543.879,721.43,543.879,722.721Z" transform="translate(-436.16 -418.211)" fill="url(#linear-gradient)"/>
        <path id="Trazado_106809" data-name="Trazado 106809" d="M532.26,543.806V632.4c0,.219.287.425.79.6a22.044,22.044,0,0,0,10.229,0c.5-.177.79-.383.79-.6V543.806Z" transform="translate(-441.129 -328.206)" fill="#30112a"/>
        <g id="Grupo_55405" data-name="Grupo 55405" transform="translate(0 4.373)">
          <path id="Trazado_106810" data-name="Trazado 106810" d="M388.488,209.728c-6.416,44.909-6.416,176.026-6.416,176.026a56.568,56.568,0,0,1-35.686,0c.8-143.948,19.247-204.494,19.247-204.494L379.39,198.4Z" transform="translate(-346.386 -147.782)" fill="#12263f"/>
          <path id="Trazado_106811" data-name="Trazado 106811" d="M388.488,209.728c-6.416,44.909-6.416,176.026-6.416,176.026a56.568,56.568,0,0,1-35.686,0c.8-143.948,19.247-204.494,19.247-204.494L379.39,198.4Z" transform="translate(-346.386 -147.782)" opacity="0.5" fill="url(#linear-gradient-4)" style="mix-blend-mode: multiply;isolation: isolate"/>
          <path id="Trazado_106812" data-name="Trazado 106812" d="M388.488,227.544c-6.416,44.909-6.416,176.026-6.416,176.026a56.569,56.569,0,0,1-35.686,0c56.938-38.493,26.252-185.845,26.252-185.845l6.752-1.512Z" transform="translate(-346.386 -165.599)" opacity="0.5" fill="url(#linear-gradient-5)" style="mix-blend-mode: multiply;isolation: isolate"/>
          <path id="Trazado_106813" data-name="Trazado 106813" d="M463.43,125.745v229A63.117,63.117,0,0,1,422.866,369.8a61.605,61.605,0,0,1-28.641-7.091,154.112,154.112,0,0,1,3.446-46.38c.116-.325.233-.652.347-.979.094-.267.186-.533.278-.8.036-.1.072-.207.106-.309.078-.227.154-.451.23-.678.235-.7.465-1.389.688-2.087q.114-.349.223-.7c.1-.309.2-.618.293-.926.116-.375.23-.748.343-1.123.128-.423.254-.848.379-1.271s.249-.848.367-1.273q.168-.577.325-1.157c.1-.375.209-.75.309-1.127.02-.076.042-.152.062-.23q.285-1.056.551-2.115c.075-.293.149-.583.221-.876.064-.257.126-.513.189-.77.152-.623.3-1.249.445-1.872.086-.373.171-.748.255-1.121q.135-.6.267-1.209.12-.556.236-1.112c.162-.774.321-1.55.471-2.323q.115-.58.223-1.163.2-1.077.393-2.151c.012-.068.024-.138.036-.208.066-.375.132-.75.193-1.125.062-.355.12-.707.177-1.062.114-.7.225-1.4.327-2.093,0-.02.006-.038.01-.058.1-.7.206-1.4.3-2.1.05-.355.1-.708.144-1.063s.095-.707.139-1.06q.481-3.777.812-7.538c.026-.3.05-.6.076-.894.034-.4.066-.808.1-1.213.025-.308.046-.617.068-.926q.073-.989.137-1.979c.024-.391.048-.784.07-1.177.02-.349.04-.7.058-1.049.032-.613.062-1.229.088-1.842.014-.323.028-.644.04-.966.012-.3.024-.6.034-.906q.046-1.278.075-2.552c.008-.347.016-.694.022-1.038s.012-.694.016-1.038.01-.692.012-1.036a253.539,253.539,0,0,0-3.019-40.472c-6.069-39.718-19.143-68.844-19.143-68.844l20.121-7.468a76.995,76.995,0,0,0,34.63-25.756c.266.369.541.732.822,1.089v-.112c0,.038,0,.076,0,.114A28.93,28.93,0,0,0,457.9,125.171,26.8,26.8,0,0,0,463.43,125.745Z" transform="translate(-366.396 -113.241)" fill="#12263f"/>
          <path id="Trazado_106814" data-name="Trazado 106814" d="M463.43,125.745v229A63.117,63.117,0,0,1,422.866,369.8a61.605,61.605,0,0,1-28.641-7.091,154.112,154.112,0,0,1,3.446-46.38c.116-.325.233-.652.347-.979.094-.267.186-.533.278-.8.036-.1.072-.207.106-.309.078-.227.154-.451.23-.678.235-.7.465-1.389.688-2.087q.114-.349.223-.7c.1-.309.2-.618.293-.926.116-.375.23-.748.343-1.123.128-.423.254-.848.379-1.271s.247-.848.367-1.273q.165-.577.325-1.157c.1-.375.209-.75.309-1.127.02-.076.042-.152.062-.23q.282-1.056.551-2.115c.075-.293.149-.583.221-.876.064-.257.126-.513.189-.77.152-.623.3-1.249.445-1.872.086-.373.171-.748.255-1.121q.135-.6.267-1.209.12-.556.236-1.112.243-1.163.471-2.323.115-.58.223-1.163.2-1.077.393-2.151c.012-.068.024-.138.036-.208.066-.375.132-.75.193-1.125.06-.355.118-.707.177-1.062q.168-1.047.327-2.093c0-.02.006-.038.01-.058.1-.7.206-1.4.3-2.1.05-.355.1-.708.144-1.063s.095-.707.139-1.06q.481-3.777.812-7.538c.026-.3.05-.6.076-.894.034-.4.066-.808.1-1.213.025-.308.046-.617.068-.926q.073-.989.137-1.979c.024-.391.048-.784.07-1.177.02-.349.04-.7.058-1.049.032-.613.062-1.229.088-1.842.014-.323.028-.644.04-.966.012-.3.024-.6.034-.906q.046-1.278.075-2.552c.008-.347.016-.694.022-1.038s.012-.694.016-1.038.01-.692.012-1.036a253.539,253.539,0,0,0-3.019-40.472c-6.069-39.718-19.143-68.844-19.143-68.844l20.121-7.468a76.995,76.995,0,0,0,34.63-25.756c.266.369.541.732.822,1.089v-.112c0,.038,0,.076,0,.114A28.93,28.93,0,0,0,457.9,125.171,26.8,26.8,0,0,0,463.43,125.745Z" transform="translate(-366.396 -113.241)" opacity="0.5" fill="url(#linear-gradient-6)" style="mix-blend-mode: multiply;isolation: isolate"/>
          <path id="Trazado_106815" data-name="Trazado 106815" d="M497.44,227.6v10.525c-37.019-52.625-45.075-98.635-45.075-98.635h14.519l-8.338-4.511,1.55-7.28.69-3.244,13.437-11.478q.087.127.18.253c.266.369.541.732.822,1.089,0,.08,0,.164,0,.251,0,.126.006.258.008.393s0,.277.008.421v.032q.009.413.024.879c.014.523.034,1.092.056,1.71.006.158.012.323.02.489.016.4.034.818.056,1.255.014.327.03.666.05,1.012.012.233.024.469.038.71q.036.691.082,1.429c0,.042.006.082.008.125.008.136.016.273.026.413.006.1.014.211.02.317.016.259.034.524.052.792a.083.083,0,0,1,0,.022c.026.371.052.748.08,1.135q.1,1.359.223,2.847c.024.3.05.605.076.912a.306.306,0,0,1,0,.042q.04.46.082.933.16,1.759.353,3.671c.064.628.13,1.265.2,1.917.022.213.046.427.07.642.012.114.024.228.038.345q.051.478.108.968c.06.517.121,1.042.185,1.576.02.173.04.347.062.521s.042.351.064.528c.042.353.086.707.132,1.066q.439,3.5,1,7.362c.058.4.116.8.178,1.2q.357,2.409.774,4.956c.034.212.068.425.1.639.07.427.14.856.214,1.289s.147.868.221,1.305q.674,3.94,1.486,8.17c.044.234.09.471.136.707q.274,1.416.565,2.865.217,1.085.445,2.189c.05.245.1.491.152.738.088.425.177.854.269,1.283q.177.845.363,1.7c.1.453.2.908.295,1.363.012.051.024.1.034.152q.165.761.339,1.532.1.454.2.912c.078.345.156.689.234,1.036q.415,1.834.86,3.715c.075.321.151.642.229.964q.183.773.373,1.556.157.653.319,1.31.2.812.4,1.632c.116.469.235.942.353,1.415q.589,2.339,1.221,4.74c.116.443.233.886.353,1.331q.354,1.339.724,2.695.22.812.447,1.63.478,1.736.978,3.5.247.869.5,1.748.313,1.08.631,2.175.18.613.363,1.233.56,1.889,1.143,3.809.276.911.561,1.832.222.719.447,1.444.37,1.185.75,2.382.274.869.556,1.742.291.905.587,1.82Q496.791,225.658,497.44,227.6Z" transform="translate(-400.405 -112.978)" fill="#12263f"/>
          <path id="Trazado_106816" data-name="Trazado 106816" d="M656.346,209.728c6.415,44.909,6.415,176.026,6.415,176.026a56.569,56.569,0,0,0,35.687,0c-.8-143.948-19.246-204.494-19.246-204.494L665.444,198.4Z" transform="translate(-504.378 -147.782)" fill="#12263f"/>
          <path id="Trazado_106817" data-name="Trazado 106817" d="M656.346,209.728c6.415,44.909,6.415,176.026,6.415,176.026a56.569,56.569,0,0,0,35.687,0c-.8-143.948-19.246-204.494-19.246-204.494L665.444,198.4Z" transform="translate(-504.378 -147.782)" opacity="0.5" fill="url(#linear-gradient-7)" style="mix-blend-mode: multiply;isolation: isolate"/>
          <path id="Trazado_106818" data-name="Trazado 106818" d="M656.346,227.544c6.415,44.909,6.415,176.026,6.415,176.026a56.57,56.57,0,0,0,35.687,0C641.51,365.077,672.2,217.725,672.2,217.725l-6.752-1.512Z" transform="translate(-504.378 -165.599)" opacity="0.5" fill="url(#linear-gradient-8)" style="mix-blend-mode: multiply;isolation: isolate"/>
          <path id="Trazado_106819" data-name="Trazado 106819" d="M622.089,146.718s-3.113,6.935-7,18.648l0,.007c-.974,2.929-2,6.158-3.031,9.653-.985,3.325-1.978,6.887-2.952,10.662q-.8,3.075-1.566,6.335c-.955,4.03-1.867,8.258-2.71,12.655q-1.014,5.285-1.876,10.884-.118.774-.233,1.554h0q-.221,1.489-.426,2.992-.157,1.144-.3,2.305-.3,2.314-.555,4.668-.2,1.769-.367,3.555-.229,2.383-.418,4.8c-.028.352-.054.706-.08,1.058-.052.709-.1,1.416-.146,2.127q-.1,1.6-.187,3.213-.056,1.073-.1,2.155-.034.772-.06,1.546-.057,1.547-.094,3.106c-.011.519-.023,1.04-.031,1.561h0q-.042,2.548-.026,5.112c0,.488.008.973.015,1.461,0,.339.007.678.013,1.018,0,.318.01.637.018.958.015.64.033,1.281.05,1.922.012.4.027.8.04,1.205q.041,1.179.1,2.361c.018.421.041.842.062,1.264.018.323.034.645.054.968s.036.647.059.969c.017.265.031.532.049.8.026.38.052.763.08,1.144.023.325.047.649.072.975.049.647.1,1.3.159,1.947q.115,1.344.252,2.694c.04.4.08.809.125,1.212.035.324.069.652.106.977q.108.978.23,1.957c.038.328.08.653.121.981s.084.652.128.978.085.654.131.981c.039.283.078.563.12.847.027.2.057.407.088.612.023.169.048.335.074.5.048.326.1.654.148.98l.143.92q.193,1.206.4,2.41.3,1.754.642,3.506c.061.314.123.631.185.945,0,.025.008.048.013.072l.059.287q.1.479.2.955c.038.191.079.385.118.576.065.318.134.63.2.945q.261,1.216.544,2.428.105.462.216.923.134.575.276,1.15v0c.029.125.061.247.092.37.064.262.129.526.2.789.078.315.159.628.241.942.016.066.033.129.049.195.076.29.152.58.229.868.059.226.118.451.18.675q.292,1.088.6,2.175c.041.147.083.291.126.437.017.059.033.12.051.178s.033.12.05.178c.074.258.151.514.226.773.106.359.215.721.324,1.079s.218.717.331,1.076q.511,1.648,1.062,3.293.14.416.281.831.393,1.159.809,2.317a152.51,152.51,0,0,1,3.892,36.926c-.044,3.057-.183,6.219-.446,9.455a61.61,61.61,0,0,1-28.641,7.09,62.237,62.237,0,0,1-34.66-10.654,68.541,68.541,0,0,1-5.9-4.4v-229a26.83,26.83,0,0,0,5.53-.573l.265-.057.231-.05.147-.034c.2-.048.392-.1.586-.146.123-.031.246-.064.369-.1l.316-.088c.076-.022.151-.043.225-.066.1-.029.2-.061.3-.092.052-.015.1-.031.156-.048l.257-.083c.106-.034.213-.071.318-.106.056-.018.11-.036.164-.056.092-.033.185-.064.276-.1a.1.1,0,0,0,.02-.007l.049-.02.069-.025c.028-.008.056-.02.083-.029.082-.029.166-.062.249-.093.015,0,.029-.012.044-.018.031-.01.061-.023.092-.034.057-.023.115-.044.172-.069l.015,0,.288-.116c.1-.039.2-.082.3-.125q.427-.179.847-.375c.21-.1.418-.2.626-.3l.125-.062c.116-.057.231-.116.345-.176.049-.025.1-.049.148-.077.067-.034.136-.07.2-.106s.138-.074.2-.111c.133-.072.263-.144.4-.219.27-.152.539-.309.805-.473q.2-.121.393-.246c.126-.077.252-.159.378-.243a.066.066,0,0,0,.025-.016c.08-.052.162-.1.243-.159.043-.029.085-.057.13-.09.127-.083.253-.17.381-.262h0q.189-.13.377-.27c.117-.082.233-.167.347-.254.08-.059.159-.118.238-.18l.083-.064c.051-.039.1-.078.155-.121.092-.07.182-.141.272-.214.062-.048.124-.1.187-.151s.1-.083.157-.127l.11-.092a.039.039,0,0,0,.018-.015c.029-.023.057-.046.087-.072.159-.131.318-.267.475-.406.018-.015.036-.031.054-.048l.133-.116c.038-.035.076-.067.113-.1l.138-.123q.216-.2.427-.4l.139-.131.06-.059c.021-.022.044-.041.066-.064.052-.05.1-.1.155-.151l.1-.1.183-.183c.131-.131.26-.265.39-.4.067-.069.132-.138.2-.208.015-.015.028-.031.043-.046.077-.082.152-.164.227-.247.034-.034.066-.071.1-.106.067-.071.131-.143.195-.215l.03-.033c.07-.078.141-.158.209-.239.123-.139.242-.28.362-.423.036-.043.07-.083.1-.126s.066-.078.1-.118c.018-.022.036-.043.053-.066.038-.043.072-.085.106-.129.087-.1.172-.211.255-.318,0-.038,0-.075,0-.115v.113q.2-.258.4-.518c.021-.026.043-.054.062-.082.123-.162.243-.326.362-.489l.334.44A77.012,77.012,0,0,0,596.544,137q2.21,1.017,4.49,1.9c.311.121.622.239.935.355l1.518.564,4.461,1.655Z" transform="translate(-447.267 -113.241)" fill="#12263f"/>
          <path id="Trazado_106820" data-name="Trazado 106820" d="M622.089,146.718s-3.113,6.935-7,18.648l0,.007c-.974,2.929-2,6.158-3.031,9.653-.985,3.325-1.978,6.887-2.952,10.662q-.8,3.075-1.566,6.335c-.955,4.03-1.867,8.258-2.71,12.655q-1.014,5.285-1.876,10.884-.118.774-.233,1.554h0q-.221,1.489-.426,2.992-.157,1.144-.3,2.305-.3,2.314-.555,4.668-.2,1.769-.367,3.555-.229,2.383-.418,4.8c-.028.352-.054.706-.08,1.058-.052.709-.1,1.416-.146,2.127q-.106,1.6-.187,3.213-.056,1.073-.1,2.155-.034.772-.06,1.546-.057,1.547-.094,3.106c-.011.519-.023,1.04-.031,1.561h0q-.042,2.548-.026,5.112c0,.488.008.973.015,1.461,0,.339.007.678.013,1.018,0,.318.01.637.018.958q.02.96.05,1.922c.012.4.027.8.04,1.205q.041,1.179.1,2.361c.018.421.041.842.062,1.264.018.323.034.645.054.968s.036.647.059.969c.017.265.031.532.049.8.026.38.052.763.08,1.144.023.325.047.649.072.975.049.647.1,1.3.159,1.947q.115,1.344.252,2.694c.04.4.08.809.125,1.212.035.324.069.652.106.977q.108.978.23,1.957c.038.328.08.653.121.981s.084.652.128.978.085.654.131.981c.039.283.078.563.12.847.027.2.057.407.088.612.023.169.048.335.074.5.048.326.1.654.148.98l.143.92q.193,1.206.4,2.41.3,1.754.642,3.506c.061.314.123.631.185.945,0,.025.008.048.013.072l.059.287q.1.479.2.955c.038.191.079.385.118.576.065.318.134.63.2.945q.261,1.216.544,2.428.105.462.216.923.134.575.276,1.15v0c.029.125.061.247.092.37.064.262.129.526.2.789.078.315.159.628.241.942.016.066.033.129.049.195.076.29.152.58.229.868.059.226.118.451.18.675q.292,1.088.6,2.175c.041.147.083.291.126.437.017.059.033.12.051.178s.033.12.05.178c.074.258.151.514.226.773.106.359.215.721.324,1.079s.218.717.331,1.076q.511,1.648,1.062,3.293.14.416.281.831.393,1.159.809,2.317a152.51,152.51,0,0,1,3.892,36.926c-.044,3.057-.183,6.219-.446,9.455a61.61,61.61,0,0,1-28.641,7.09,62.237,62.237,0,0,1-34.66-10.654,68.541,68.541,0,0,1-5.9-4.4v-229a26.83,26.83,0,0,0,5.53-.573l.265-.057.231-.05.147-.034c.2-.048.392-.1.586-.146.123-.031.246-.064.369-.1l.316-.088c.076-.022.151-.043.225-.066.1-.029.2-.061.3-.092.052-.015.1-.031.156-.048l.257-.083c.106-.034.213-.071.318-.106.056-.018.11-.036.164-.056.092-.033.185-.064.276-.1a.1.1,0,0,0,.02-.007l.049-.02.069-.025c.028-.008.056-.02.083-.029.082-.029.166-.062.249-.093.015,0,.029-.012.044-.018.031-.01.061-.023.092-.034.057-.023.115-.044.172-.069l.015,0,.288-.116c.1-.039.2-.082.3-.125q.427-.179.847-.375c.21-.1.418-.2.626-.3l.125-.062c.116-.057.231-.116.345-.176.049-.025.1-.049.148-.077.067-.034.136-.07.2-.106s.138-.074.2-.111c.133-.072.263-.144.4-.219.27-.152.539-.309.805-.473q.2-.121.393-.246c.126-.077.252-.159.378-.243a.066.066,0,0,0,.025-.016c.08-.052.162-.1.243-.159.043-.029.085-.057.13-.09.127-.083.253-.17.381-.262h0q.189-.13.377-.27c.117-.082.233-.167.347-.254.08-.059.159-.118.238-.18l.083-.064c.051-.039.1-.078.155-.121.092-.07.182-.141.272-.214.062-.048.124-.1.187-.151s.1-.083.157-.127l.11-.092a.039.039,0,0,0,.018-.015c.029-.023.057-.046.087-.072.159-.131.318-.267.475-.406.018-.015.036-.031.054-.048l.133-.116c.038-.035.076-.067.113-.1l.138-.123q.216-.2.427-.4l.139-.131.06-.059c.021-.022.044-.041.066-.064.052-.05.1-.1.155-.151l.1-.1.183-.183c.131-.131.26-.265.39-.4.067-.069.132-.138.2-.208.015-.015.028-.031.043-.046.077-.082.152-.164.227-.247.034-.034.066-.071.1-.106.067-.071.131-.143.195-.215l.03-.033c.07-.078.141-.158.209-.239.123-.139.242-.28.362-.423.036-.043.07-.083.1-.126s.066-.078.1-.118c.018-.022.036-.043.053-.066.038-.043.072-.085.106-.129.087-.1.172-.211.255-.318,0-.038,0-.075,0-.115v.113q.2-.258.4-.518c.021-.026.043-.054.062-.082.123-.162.243-.326.362-.489l.334.44A77.012,77.012,0,0,0,596.544,137q2.21,1.017,4.49,1.9c.311.121.622.239.935.355l1.518.564,4.461,1.655Z" transform="translate(-447.267 -113.241)" opacity="0.5" fill="url(#linear-gradient-9)" style="mix-blend-mode: multiply;isolation: isolate"/>
          <path id="Trazado_106821" data-name="Trazado 106821" d="M543.421,115.718v.12c0,.042,0,.084,0,.128,0,.126,0,.256-.008.393s0,.277-.008.421v.032c-.008.275-.014.57-.024.879q-.021.785-.056,1.71c-.006.158-.012.323-.02.489-.016.4-.034.82-.056,1.255-.01.245-.024.5-.036.754,0,.086-.01.172-.014.258-.01.233-.024.469-.038.71-.024.461-.052.938-.082,1.429,0,.042-.006.084-.008.125-.008.136-.016.273-.026.413-.006.1-.012.211-.02.317-.016.259-.034.524-.052.792,0,.006,0,.014,0,.022-.026.371-.052.748-.08,1.135q-.1,1.362-.223,2.847c-.024.3-.05.605-.077.912,0,.014,0,.028,0,.042-.028.307-.054.618-.082.933q-.16,1.759-.353,3.671c-.064.628-.13,1.267-.2,1.917-.022.213-.046.427-.07.642-.012.116-.024.23-.038.345-.034.319-.072.642-.108.968-.06.519-.12,1.045-.184,1.576-.02.173-.04.347-.062.521s-.042.351-.064.528c-.044.353-.088.707-.132,1.066q-.439,3.5-1,7.362c-.058.4-.116.8-.178,1.2q-.358,2.412-.774,4.956c-.034.212-.068.425-.1.639-.07.427-.14.856-.214,1.289s-.147.868-.221,1.305q-.674,3.94-1.485,8.17c-.044.234-.09.471-.136.707q-.274,1.416-.566,2.865-.213,1.085-.445,2.189c-.051.245-.1.491-.152.738-.088.425-.178.854-.269,1.283q-.177.848-.363,1.7c-.1.453-.2.908-.295,1.363-.012.052-.022.1-.034.152-.112.509-.224,1.019-.339,1.532-.066.3-.132.605-.2.912-.078.345-.156.689-.234,1.036q-.415,1.837-.86,3.715c-.074.321-.15.642-.229.964q-.183.773-.373,1.556-.157.653-.319,1.31-.2.812-.4,1.632c-.117.469-.235.942-.353,1.415q-.59,2.343-1.221,4.74c-.117.443-.233.886-.353,1.331q-.355,1.339-.724,2.695c-.147.541-.3,1.085-.447,1.63q-.178.644-.359,1.293-.3,1.1-.62,2.2-.246.869-.5,1.748-.313,1.083-.632,2.175-.18.613-.363,1.233-.56,1.889-1.143,3.809c-.184.607-.373,1.219-.561,1.832q-.223.719-.447,1.444-.37,1.185-.75,2.382c-.182.579-.369,1.161-.555,1.742-.195.6-.389,1.211-.587,1.82q-.623,1.916-1.271,3.858-.646-1.94-1.271-3.858-.3-.914-.587-1.82-.28-.872-.556-1.742-.382-1.2-.75-2.382-.226-.725-.447-1.444-.286-.92-.561-1.832-.584-1.919-1.143-3.809-.183-.619-.363-1.233-.319-1.1-.631-2.175-.253-.878-.5-1.748-.315-1.107-.619-2.2c-.12-.433-.241-.864-.359-1.293q-.226-.818-.447-1.63-.37-1.356-.724-2.695c-.12-.445-.237-.888-.353-1.331q-.632-2.4-1.221-4.74-.177-.713-.353-1.415-.2-.821-.4-1.632c-.108-.439-.214-.874-.319-1.31q-.19-.782-.373-1.556c-.078-.323-.154-.643-.229-.964q-.445-1.879-.86-3.715c-.078-.347-.156-.692-.234-1.036-.068-.3-.136-.609-.2-.912-.114-.513-.227-1.022-.339-1.532-.01-.05-.022-.1-.034-.152-.1-.457-.2-.91-.295-1.363q-.187-.858-.363-1.7c-.09-.429-.18-.858-.269-1.283-.052-.247-.1-.493-.152-.738q-.229-1.1-.445-2.189-.291-1.447-.565-2.865c-.046-.236-.092-.471-.136-.707q-.812-4.229-1.486-8.17c-.074-.437-.149-.874-.221-1.305s-.144-.862-.214-1.289c-.036-.215-.07-.427-.1-.639q-.415-2.545-.774-4.956c-.06-.4-.121-.8-.178-1.2q-.566-3.862-1-7.362c-.044-.359-.088-.713-.132-1.066-.022-.177-.042-.351-.064-.528s-.042-.349-.062-.521c-.064-.533-.125-1.059-.185-1.576-.036-.327-.074-.65-.108-.968-.014-.116-.027-.23-.038-.345-.024-.215-.048-.429-.07-.642-.072-.652-.138-1.289-.2-1.917q-.2-1.913-.353-3.671c-.028-.315-.054-.626-.082-.933a.305.305,0,0,0,0-.042c-.026-.308-.052-.611-.076-.912q-.124-1.486-.223-2.847c-.028-.387-.054-.764-.08-1.135a.083.083,0,0,0,0-.022c-.018-.269-.034-.531-.052-.792-.006-.106-.014-.212-.02-.317-.008-.138-.018-.277-.026-.413,0-.042-.006-.082-.008-.125q-.046-.74-.082-1.429c-.014-.241-.026-.477-.038-.71,0-.086-.008-.172-.014-.258-.012-.257-.026-.509-.036-.754-.022-.437-.04-.856-.056-1.255-.006-.166-.014-.33-.02-.489-.022-.618-.042-1.187-.056-1.71-.01-.309-.016-.6-.024-.879v-.032c0-.144-.006-.285-.008-.421s-.006-.266-.008-.393c0-.042,0-.086,0-.128v-.12a29.759,29.759,0,0,0,11.191,8.8q.249.112.5.217a26.94,26.94,0,0,0,21.043,0A29.662,29.662,0,0,0,543.421,115.718Z" transform="translate(-424.173 -114.375)" fill="#f6f6f6"/>
          <g id="Grupo_55404" data-name="Grupo 55404" transform="translate(89.286 125.145)" opacity="0.5" style="mix-blend-mode: multiply;isolation: isolate">
            <path id="Trazado_106822" data-name="Trazado 106822" d="M536.246,368.231c.642.122-.131,6.637-1.14,17.135-.482,5.252-1.031,11.5-1.436,18.449s-.675,14.593-.7,22.619c-.092,16.055.891,30.575,1.9,41.06s1.976,16.949,1.384,17.093-2.7-6.158-4.514-16.673c-.9-5.255-1.752-11.553-2.333-18.581-.307-3.512-.522-7.208-.69-11.041q-.048-1.438-.1-2.9-.022-.732-.045-1.469t-.024-1.48q-.023-1.486-.046-2.993,0-1.507,0-3.033c.029-8.138.425-15.887,1.066-22.906s1.52-13.309,2.409-18.559C533.8,374.451,535.678,368.12,536.246,368.231Z" transform="translate(-528.497 -368.23)" fill="url(#linear-gradient-10)"/>
          </g>
          <path id="Trazado_106823" data-name="Trazado 106823" d="M448.443,467.272l-31.629,10.964a171.242,171.242,0,0,0,4.174-18.561l25.048-8.641Z" transform="translate(-382.284 -285.292)" opacity="0.35" fill="url(#linear-gradient-11)" style="mix-blend-mode: multiply;isolation: isolate"/>
          <path id="Trazado_106824" data-name="Trazado 106824" d="M637.036,479.01l-33.862-11.738,2.406-16.237,27.186,9.379q.3,1.753.641,3.507Q634.869,471.483,637.036,479.01Z" transform="translate(-477.276 -285.292)" opacity="0.35" fill="url(#linear-gradient-12)" style="mix-blend-mode: multiply;isolation: isolate"/>
          <path id="Trazado_106825" data-name="Trazado 106825" d="M498.99,115.485c0,.038,0,.076,0,.114l0,0Z" transform="translate(-424.171 -114.256)" fill="#f0ebff"/>
          <path id="Trazado_106826" data-name="Trazado 106826" d="M589.612,115.485v.112l0,0C589.612,115.561,589.612,115.523,589.612,115.485Z" transform="translate(-470.362 -114.256)" fill="#f0ebff"/>
          <path id="Trazado_106827" data-name="Trazado 106827" d="M537.828,151.545l2.963,62.583q-.3,1.1-.62,2.2-.246.869-.5,1.748-.313,1.083-.632,2.175-.18.613-.363,1.233-.56,1.889-1.143,3.809c-.184.607-.373,1.219-.561,1.832q-.223.719-.447,1.444-.37,1.185-.75,2.382c-.182.579-.369,1.16-.555,1.742-.195.6-.389,1.211-.587,1.82q-.623,1.916-1.271,3.858-.647-1.94-1.271-3.858-.3-.914-.587-1.82-.28-.872-.556-1.742-.382-1.2-.75-2.382-.226-.725-.447-1.444-.286-.92-.561-1.832-.584-1.919-1.143-3.809-.183-.619-.363-1.233-.319-1.1-.631-2.175-.253-.878-.5-1.748-.315-1.107-.619-2.2l2.963-62.583c-3.438-4.5-5.191-11.895-6.057-17.426a26.94,26.94,0,0,0,21.043,0C543.017,139.65,541.267,147.04,537.828,151.545Z" transform="translate(-436.329 -123.754)" fill="#12263f"/>
          <path id="Trazado_106828" data-name="Trazado 106828" d="M572.264,115.718v.12c0,.042,0,.084,0,.128,0,.126,0,.256-.008.393s0,.277-.008.421v.032c-.008.275-.014.57-.024.879q-.021.785-.056,1.71c-.006.158-.012.323-.02.489-.016.4-.034.82-.056,1.255-.01.245-.024.5-.036.754,0,.086-.01.172-.014.258-.01.233-.024.469-.038.71-.024.461-.052.938-.082,1.429,0,.042-.006.084-.008.125-.008.136-.016.273-.026.413-.006.1-.012.211-.02.317-.016.259-.034.524-.052.792,0,.006,0,.014,0,.022-.026.371-.052.748-.08,1.135q-.1,1.362-.223,2.847c-.024.3-.05.605-.076.912,0,.014,0,.028,0,.042-.028.307-.054.618-.082.933q-.16,1.759-.353,3.671l-5.171,4.729c-.878-6.634-7-11.684-10.243-13.927A28.929,28.929,0,0,0,572.264,115.718Z" transform="translate(-453.016 -114.375)" fill="#f0ebff"/>
          <path id="Trazado_106829" data-name="Trazado 106829" d="M515.678,126.306c-3.242,2.244-9.364,7.293-10.243,13.927l-5.17-4.729q-.2-1.913-.353-3.671c-.028-.315-.054-.626-.082-.933a.305.305,0,0,0,0-.042c-.026-.308-.052-.611-.076-.912q-.124-1.486-.223-2.847c-.028-.387-.054-.764-.08-1.135a.083.083,0,0,0,0-.022c-.018-.269-.034-.531-.052-.792-.006-.106-.014-.212-.02-.317-.008-.138-.018-.277-.026-.413,0-.042-.006-.082-.008-.125q-.046-.74-.082-1.429c-.014-.241-.026-.477-.038-.71-.018-.347-.036-.685-.05-1.012-.022-.437-.04-.856-.056-1.255-.006-.166-.014-.33-.02-.489-.022-.618-.042-1.187-.056-1.71-.01-.309-.016-.6-.024-.879v-.032c0-.144-.006-.285-.008-.421s-.006-.266-.008-.393c0-.084,0-.169,0-.249A28.93,28.93,0,0,0,515.678,126.306Z" transform="translate(-424.173 -114.375)" fill="#f0ebff"/>
          <path id="Trazado_106830" data-name="Trazado 106830" d="M535.088,169.662h8.93l1.874,39.576s-1.843-37.867-10.907-37.382Z" transform="translate(-442.518 -141.871)" fill="#171721"/>
          <rect id="Rectángulo_5762" data-name="Rectángulo 5762" width="29.169" height="7.518" transform="translate(115.711 80.04)" opacity="0.35" fill="url(#linear-gradient-13)" style="mix-blend-mode: multiply;isolation: isolate"/>
          <path id="Trazado_106831" data-name="Trazado 106831" d="M589.377,139.49S581.322,185.5,544.3,238.125V227.6q.647-1.94,1.271-3.858c.2-.609.393-1.217.588-1.82q.282-.875.555-1.742.382-1.2.75-2.382.226-.725.447-1.444c.188-.613.377-1.225.561-1.832q.583-1.922,1.143-3.809.183-.619.363-1.233.318-1.1.631-2.175.253-.878.5-1.748.5-1.762.979-3.5c.15-.545.3-1.088.447-1.63q.37-1.356.724-2.695c.12-.445.236-.888.353-1.331q.631-2.4,1.221-4.74l.353-1.415q.2-.821.4-1.632.162-.656.319-1.31.189-.782.373-1.556c.078-.323.154-.643.229-.964q.445-1.879.86-3.715c.078-.347.156-.692.234-1.036.07-.307.136-.609.2-.912q.174-.769.339-1.532c.012-.05.022-.1.034-.152.1-.455.2-.91.295-1.363q.186-.858.363-1.7c.092-.429.181-.858.269-1.283.052-.247.1-.493.152-.738q.232-1.1.445-2.189.292-1.449.566-2.865c.046-.236.092-.473.136-.707q.815-4.229,1.485-8.17.111-.655.221-1.305c.074-.433.144-.862.214-1.289.036-.215.07-.427.1-.639q.415-2.545.774-4.956c.062-.4.121-.8.179-1.2q.565-3.862,1-7.362c.046-.359.09-.713.132-1.066.022-.177.042-.353.064-.528s.042-.349.062-.521c.064-.531.125-1.057.184-1.576q.057-.49.108-.968c.014-.114.026-.228.038-.345.024-.215.048-.429.07-.642.072-.65.138-1.289.2-1.917q.2-1.913.353-3.671c.028-.315.056-.626.082-.933,0-.014,0-.028,0-.042.026-.306.052-.611.077-.912q.123-1.486.222-2.847c.028-.387.054-.764.08-1.135,0-.008,0-.016,0-.022.018-.269.036-.533.052-.792.008-.106.014-.212.02-.317.01-.14.018-.277.026-.413,0-.04.006-.082.008-.125.03-.491.058-.968.082-1.429.014-.241.028-.477.038-.71,0-.086.01-.172.014-.258.014-.257.026-.509.036-.754.022-.435.04-.854.056-1.255.008-.166.014-.33.02-.489q.036-.927.056-1.71.015-.466.024-.879v-.032c0-.144.006-.285.008-.421s.006-.266.008-.393c0-.044,0-.086,0-.128s0-.082,0-.122q.421-.535.822-1.089.094-.126.18-.253l13.437,11.478.69,3.244,1.549,7.28-8.338,4.511Z" transform="translate(-447.267 -112.978)" fill="#12263f"/>
          <path id="Trazado_106832" data-name="Trazado 106832" d="M553.455,434.594a2.94,2.94,0,1,1-2.941-2.941A2.941,2.941,0,0,1,553.455,434.594Z" transform="translate(-448.935 -275.413)" fill="#fff"/>
          <path id="Trazado_106833" data-name="Trazado 106833" d="M553.455,519.24a2.94,2.94,0,1,1-2.941-2.941A2.941,2.941,0,0,1,553.455,519.24Z" transform="translate(-448.935 -318.558)" fill="#fff"/>
        </g>
      </g>
      <g id="Grupo_55408" data-name="Grupo 55408" transform="translate(138.767 30.027)">
        <path id="Trazado_106834" data-name="Trazado 106834" d="M752.6,593.063a11.684,11.684,0,0,1-1.067,2.607c-.221.419-.494.867-.875,1.443-.3.45-.648.928-1.1,1.507a31.637,31.637,0,0,1-2.875,3.13,40.852,40.852,0,0,1-3.731,3.122,48.411,48.411,0,0,1-4.511,2.968c-1.633.949-3.364,1.849-5.151,2.661l-.19.1a3.833,3.833,0,0,1-1.823.465,3.775,3.775,0,0,1-1.461-.29,3.858,3.858,0,0,1-.926-.545l-1.458-1.162c-.159-.129-.319-.257-.476-.4l-.617-.543c-.712-.607-1.381-1.252-2.026-1.877l-.389-.378-1.1-1.144c-.38-.393-.735-.8-1.062-1.186a45.557,45.557,0,0,1-3.675-4.783l-.308-.476c-.419-.648-.815-1.26-1.168-1.9l-.671-1.17-.589-1.142a38.641,38.641,0,0,1-1.877-4.333l-.193-.514-.159-.494-.293-.938c-.188-.584-.327-1.158-.445-1.667l-.026-.113c-.028-.113-.052-.224-.077-.334l3.286-2.839c.077.126.151.247.231.38.206.347.432.723.684,1.124.093.149.183.3.275.46.185.308.373.632.592.962l.486.777.234.385.273.406c.656,1.008,1.453,2.209,2.386,3.464l.674.913.743.947c.314.419.656.825,1.018,1.252.177.213.358.427.525.633,1.085,1.245,2.268,2.569,3.58,3.845.28.28.627.63.984.952l1.008.946c.227.19.448.388.669.586.44.386.9.792,1.368,1.173.632-.52,1.278-1.052,1.957-1.625.867-.723,1.695-1.433,2.5-2.125.337-.288.669-.576,1-.854.059-.052.116-.1.172-.149.391-.327.771-.654,1.142-.972.753-.643,1.461-1.255,2.158-1.821.952-.8,1.921-1.571,2.97-2.358.453-.339.887-.645,1.366-.98.429-.293.841-.548,1.3-.831a14.183,14.183,0,0,1,2.358-1.165,5.86,5.86,0,0,1,1.983-.417l.056,0a2.584,2.584,0,0,1,1.682.566,2.476,2.476,0,0,1,.835,1.579A5.342,5.342,0,0,1,752.6,593.063Z" transform="translate(-686.658 -378.132)" fill="#f68895"/>
        <path id="Trazado_106835" data-name="Trazado 106835" d="M785.964,545.611a11.585,11.585,0,0,0,6.432,8.716c2.29,1.075,5.046,1.46,6.724,3.353,1.891,2.133,1.691,5.324,2.31,8.107A13.058,13.058,0,1,0,824.455,554.9c-2.287-2.918-5.694-4.73-8.3-7.362-2.844-2.867-4.633-6.585-6.838-9.968s-5.116-6.636-9.022-7.664C792.479,527.85,784.993,538.694,785.964,545.611Z" transform="translate(-724.171 -351.017)" fill="url(#linear-gradient-14)"/>
        <path id="Trazado_106836" data-name="Trazado 106836" d="M748.043,616.921a3.8,3.8,0,0,0,3.284-.173l.191-.1c1.786-.815,3.517-1.712,5.15-2.661a48.452,48.452,0,0,0,4.51-2.967,40.234,40.234,0,0,0,3.73-3.123,30.794,30.794,0,0,0,2.877-3.131c.454-.577.8-1.056,1.1-1.507a16.848,16.848,0,0,0,.875-1.441,11.7,11.7,0,0,0,1.069-2.606,5.345,5.345,0,0,0,.167-2.161,2.459,2.459,0,0,0-.837-1.581,2.578,2.578,0,0,0-1.682-.566l-.055,0a5.9,5.9,0,0,0-1.985.416,14.4,14.4,0,0,0-2.357,1.165c-.457.284-.867.539-1.294.831-.481.336-.916.64-1.367.979-1.047.788-2.018,1.559-2.97,2.36-.7.566-1.406,1.176-2.158,1.821-.372.317-.752.643-1.141.971l-.175.151a8.642,8.642,0,0,1-.771,10.069A11.171,11.171,0,0,1,748.043,616.921Z" transform="translate(-704.885 -384.275)" fill="#f17785"/>
        <path id="Trazado_106837" data-name="Trazado 106837" d="M777.851,593.1s-6.229.774-14.228,8.841c0,0-.547,4.99,4.991,9.674Z" transform="translate(-712.819 -383.357)" fill="url(#linear-gradient-15)"/>
        <path id="Trazado_106838" data-name="Trazado 106838" d="M848.951,908.171c.473,1.72-.618,3.531-2.045,4.6a34.436,34.436,0,0,1-4.74,2.464c-1.576.836-3.094,2.112-3.448,3.86a40.259,40.259,0,0,0,17.142-.241,28.456,28.456,0,0,0-1.661-11.809C852.251,906.443,850.99,908.191,848.951,908.171Z" transform="translate(-751.104 -543.318)" fill="#35132f"/>
        <path id="Trazado_106839" data-name="Trazado 106839" d="M749.031,910.553c.46,1.537-.484,3.188-1.745,4.18a30.964,30.964,0,0,1-4.214,2.312,5.543,5.543,0,0,0-3.022,3.542,33.771,33.771,0,0,0,14.877-.565,25.6,25.6,0,0,0-1.735-10.587C751.43,908.933,750.866,910.53,749.031,910.553Z" transform="translate(-700.811 -544.551)" fill="#35132f"/>
        <path id="Trazado_106840" data-name="Trazado 106840" d="M750.5,790.342c2.136-.179,4.137-.331,6.274-.509-2.137-29.157,1.359-66.681,8.826-94.944,5.951,30.393,17.253,67.554,34.625,93.271a25.574,25.574,0,0,0,7.36-3.245c-16.72-28.976-21.936-71.291-23.1-82.96-.319-3.2-.727-6.39-1.262-9.56a56.443,56.443,0,0,0-3.378-12.577,31.573,31.573,0,0,0-2.117-4.14l-4.193-7.556-2.636.06-4.162.1-8.823.2-.835,2.724-2.778,9.059-.01.031A204.466,204.466,0,0,0,750.5,790.342Z" transform="translate(-703.2 -421.599)" fill="url(#linear-gradient-16)"/>
        <path id="Trazado_106841" data-name="Trazado 106841" d="M766.318,815.322c-2.137-29.157,1.359-66.681,8.826-94.944l-5.673-2.25S758.392,778.619,766.318,815.322Z" transform="translate(-712.744 -447.088)" fill="#35132f"/>
        <path id="Trazado_106842" data-name="Trazado 106842" d="M803.991,563.581a41.017,41.017,0,0,0-1.1,4.647v0c-.082.469-.157.935-.219,1.4-.017.1-.028.2-.04.292a41.371,41.371,0,0,0-.353,4.948c0,.372,0,.741,0,1.112l0,.028c.007.32.016.64.03.96a40.256,40.256,0,0,0,.377,4.153,8.283,8.283,0,0,1-5.111,2.19,8.887,8.887,0,0,1-5.519-1.65,37.841,37.841,0,0,0,2.9-6.848c0-.017.009-.028.014-.043.1-.3.186-.605.273-.913.118-.409.226-.822.329-1.238.012-.043.022-.087.033-.13.134-.548.256-1.095.367-1.65.035-.148.063-.3.094-.459q.268-1.423.435-2.865A22.248,22.248,0,0,1,803.991,563.581Z" transform="translate(-727.321 -368.312)" fill="#f68895"/>
        <path id="Trazado_106843" data-name="Trazado 106843" d="M771.121,629.4s0,.005.005.008a34.952,34.952,0,0,0,6.755.689,33.861,33.861,0,0,0,8.86-1.075,39.437,39.437,0,0,1,5.97-15.5c3.508-4.906,6.927-2.2,6.927-2.2,6.331-1.343,7.523-6.3,7.523-6.3-3.817-5.636-9.875-10.25-12.7-12.233a7.6,7.6,0,0,0-2.21-1.066,7.25,7.25,0,0,0-1.414-.268c-.052-.005-.1-.008-.148-.011-2.508-.145-4.668.495-7.182.571a12.929,12.929,0,0,0-2.007.222c-.019,0-.041.008-.06.011l0,0-.03.008c-.216.082-.427.167-.634.254C778.1,593.762,768.405,600.388,771.121,629.4Z" transform="translate(-716.406 -382.496)" fill="url(#linear-gradient-17)"/>
        <path id="Trazado_106844" data-name="Trazado 106844" d="M807.647,563.581a41.069,41.069,0,0,0-1.1,4.647v0c-.082.469-.157.935-.219,1.4-.017.1-.028.2-.04.292a41.371,41.371,0,0,0-.353,4.948,13.364,13.364,0,0,0-6.705-2.25c.012-.043.021-.087.033-.13.134-.548.256-1.095.367-1.65.035-.148.063-.3.094-.459q.268-1.423.435-2.865A22.25,22.25,0,0,1,807.647,563.581Z" transform="translate(-730.977 -368.312)" fill="#f17785"/>
        <path id="Trazado_106845" data-name="Trazado 106845" d="M803.417,556.831c-.2.607-.425,1.218-.572,1.841a6.322,6.322,0,0,0-.135.7c-.073.094-.146.188-.219.279a9.143,9.143,0,0,1-4.82,3.366,4.99,4.99,0,0,1-5.3-1.853,5.948,5.948,0,0,1-.1-5.321c.681-1.712,1.772-3.234,2.516-4.921a8.683,8.683,0,0,0,.736-2.705,5.087,5.087,0,0,0-.253-2.215,9.317,9.317,0,0,0,2.111,1.672c1.322.8,2.76,1.4,4.011,2.306a5.729,5.729,0,0,1,2.535,3.72A7.164,7.164,0,0,1,803.417,556.831Z" transform="translate(-727.135 -359.352)" fill="#f68895"/>
        <path id="Trazado_106846" data-name="Trazado 106846" d="M814.339,565.2c.13-.368.354-.771.739-.832a.988.988,0,0,1,.914.585,2.427,2.427,0,0,1-2.938,3.492C813.42,567.371,813.962,566.272,814.339,565.2Z" transform="translate(-738.023 -368.71)" fill="#f68895"/>
        <path id="Trazado_106847" data-name="Trazado 106847" d="M793.061,596.406a4.116,4.116,0,0,0,3.21.9,7.9,7.9,0,0,0,6.927-5.6,7.247,7.247,0,0,0-1.414-.268c-.052-.005-.1-.008-.148-.011-2.508-.145-4.668.495-7.182.571a12.928,12.928,0,0,0-2.007.222,5.789,5.789,0,0,0-.216.744A3.707,3.707,0,0,0,793.061,596.406Z" transform="translate(-727.355 -382.496)" fill="#f68895"/>
        <path id="Trazado_106848" data-name="Trazado 106848" d="M798.089,570.008a5.139,5.139,0,0,1-2.075-.481.221.221,0,0,0-.315.193,1.362,1.362,0,0,0,.4,1.051,1.594,1.594,0,0,0,1.443.4c.4-.094.6-.466.749-.861A.22.22,0,0,0,798.089,570.008Z" transform="translate(-729.176 -371.333)" fill="#f4e4eb"/>
        <path id="Trazado_106849" data-name="Trazado 106849" d="M814.684,572.7a.652.652,0,1,1-.652-.652A.652.652,0,0,1,814.684,572.7Z" transform="translate(-738.189 -372.629)" fill="#f4e4eb"/>
        <g id="Grupo_55407" data-name="Grupo 55407">
          <path id="Trazado_106850" data-name="Trazado 106850" d="M751.516,442.863l-6.512-.7c1.049-9.735-.832-18.2-5.594-25.172a28.679,28.679,0,0,0-7.364-7.529q-.573-.209-1.136-.418l-.374-.141q-3.478-1.3-6.617-2.669c-3.519-1.524-6.73-3.092-9.656-4.67-2.561-1.382-4.9-2.774-7.044-4.156q-.418-.27-.826-.539a83.476,83.476,0,0,1-9.009-6.827c-.257-.226-.511-.451-.758-.673a54.238,54.238,0,0,1-8.694-9.751,23.188,23.188,0,0,1-1.9-3.239l-.169-.375-.034-.076-.059-.49-.6-4.9-.458-3.745-.8-6.58L670.727,252.846l-2.56-20.924-.1-.837-1.547-12.655L664.2,199.452l-.563-4.6-3.8-37.386c.311.121.875.634,1.188.75l2,1.188,3.125,1.875,3.213,26.442.378,3.087.185,1.514,1.115,9.114.54,4.416.765,6.246,1.213,9.923L692.2,374.07a27.96,27.96,0,0,0,2.3,3.457,50.411,50.411,0,0,0,5.777,6.3q.626.583,1.33,1.2c1.105.971,2.356,2,3.764,3.077l.332.252c1.543,1.162,3.27,2.376,5.2,3.614q1.388.892,2.915,1.8c.3.178.6.355.912.534a120.757,120.757,0,0,0,18.164,8.485q.847.32,1.718.634l.283.1.26.152c.04.023.257.152.614.391a33.01,33.01,0,0,1,5.98,5.307,37.522,37.522,0,0,1,2.858,3.609C748.609,418.725,753.059,428.566,751.516,442.863Z" transform="translate(-660.016 -165.302)" fill="#f9c33d"/>
        </g>
        <path id="Trazado_106851" data-name="Trazado 106851" d="M710.467,585.566a5.916,5.916,0,0,1-2.372-4.309,6.412,6.412,0,0,1,1.086-5.021c1.612-.024,3.616.132,4.835,1.186a3.8,3.8,0,0,1,.848,4.33C714.179,583.282,711.9,584.694,710.467,585.566Z" transform="translate(-684.466 -374.761)" fill="#f68895"/>
        <path id="Trazado_106852" data-name="Trazado 106852" d="M828.382,641.642h-.017c-4.079-.187-7.974-.4-11.521-.667s-6.748-.586-9.437-.953c-.654-.087-1.274-.18-1.862-.273-.108-.017-.214-.033-.318-.051l1.657-3.93.667-.049c2.694-.183,5.9-.313,9.468-.355,1.644-.02,3.363-.02,5.146,0-.94-3.29-4.685-9.562-4.8-9.755a.009.009,0,0,1,0-.006c5.543-1.217,7.1-5.22,7.375-6.106.072.094.139.188.211.282.092.126.183.252.278.38.155.216.311.435.465.661.469.734.968,1.484,1.4,2.306.223.407.447.819.66,1.244s.409.868.612,1.31a36.834,36.834,0,0,1,2,5.771,42.545,42.545,0,0,1,1.115,6.4l.046.477A3.017,3.017,0,0,1,828.382,641.642Z" transform="translate(-734.033 -396.816)" fill="#f68895"/>
        <path id="Trazado_106853" data-name="Trazado 106853" d="M829.977,625.608a.01.01,0,0,0,0,.006c.118.194,3.862,6.465,4.8,9.755-1.777-9.5,3.06-15.205,3.06-15.205-.1-.128-.186-.254-.279-.38-.071-.093-.139-.189-.211-.281C837.073,620.388,835.52,624.392,829.977,625.608Z" transform="translate(-746.648 -396.816)" fill="#f17785"/>
        <path id="Trazado_106854" data-name="Trazado 106854" d="M800.553,652.118a9.356,9.356,0,0,0-10.316,1.911,6.192,6.192,0,0,0,3.911,2.805,5.911,5.911,0,0,0,4.564-1.124A8.686,8.686,0,0,1,800.553,652.118Z" transform="translate(-726.392 -413.039)" fill="#f68895"/>
      </g>
    </g>
    <g id="Grupo_55412" data-name="Grupo 55412" transform="translate(140.37 212.298)">
      <g id="Grupo_55411" data-name="Grupo 55411" transform="translate(0.001 0)">
        <path id="Trazado_106855" data-name="Trazado 106855" d="M143.541,908.667a20.744,20.744,0,0,0-3.209,11.774,70.037,70.037,0,0,0,12.524.134c.526-1.938-.3-3.938-1.005-5.819s-1.443-3.885-1.026-5.849C148.472,908.76,145.9,908.591,143.541,908.667Z" transform="translate(-140.162 -718.277)" fill="#171721"/>
        <path id="Trazado_106856" data-name="Trazado 106856" d="M198.694,904.38a28.379,28.379,0,0,1-.616,13,52.739,52.739,0,0,0,17.9.721,2.826,2.826,0,0,0-.295-3.334,5.856,5.856,0,0,0-2.961-1.754,21.721,21.721,0,0,1-3.318-1.081,6.613,6.613,0,0,1-3.527-6.625A12.341,12.341,0,0,0,198.694,904.38Z" transform="translate(-169.602 -716.02)" fill="#171721"/>
        <path id="Trazado_106857" data-name="Trazado 106857" d="M144.914,796.533q3.032.311,6.138.517a2.536,2.536,0,0,0,2.589-1.79c3.176-10.537,7.66-30.583,10.785-66.033q.668-7.6,1.247-16.173c.808,4.82,1.6,10.259,2.283,16.224a315.357,315.357,0,0,1,.863,65.245,2.544,2.544,0,0,0,2.632,2.768q3.21-.137,6.339-.377a2.533,2.533,0,0,0,2.307-2.157,339.412,339.412,0,0,0,2.911-64.512q-.254-5.222-.679-10.68-.245-3.052-.547-6.169-.2-2.049-.425-4.127c-.058-.53-.119-1.063-.177-1.593-.177-1.525-.36-3.054-.557-4.6v0q-.255-1.987-.537-4c-.014-.1-.027-.2-.044-.3q-.418-2.97-.9-5.979c-.153-.955-.306-1.913-.469-2.871-.017-.115-.041-.238-.058-.353-.089-.509-.18-1.019-.269-1.532l-12.552-.268-19.291-.408c.18,1.332.4,3.17.625,5.547.044.509.088,1.039.136,1.593.01.1.02.2.024.309.075.884.143,1.831.211,2.837.017.224.03.452.044.682q.061.958.119,1.995.153,2.767.265,6.053.036,1.075.068,2.215.066,2.588.092,5.479.03,2.951.007,6.22-.031,4.484-.174,9.572c-.476,16.305-1.926,37.394-5.251,63.836A2.522,2.522,0,0,0,144.914,796.533Z" transform="translate(-141.349 -605.485)" fill="url(#linear-gradient-18)"/>
        <path id="Trazado_106858" data-name="Trazado 106858" d="M194.256,822.367a2.525,2.525,0,0,1-1.5-2.554,315.238,315.238,0,0,0-.864-65.244c-.686-5.963-1.477-11.4-2.282-16.224l5.458-1.361S201.161,787.2,194.256,822.367Z" transform="translate(-165.287 -630.776)" fill="#171721" style="mix-blend-mode: multiply;isolation: isolate"/>
        <path id="Trazado_106859" data-name="Trazado 106859" d="M150.512,687.366c.18,1.332.4,3.17.625,5.547.044.509.088,1.039.136,1.593.01.1.02.2.024.309.075.884.143,1.831.211,2.837.017.224.03.452.044.682q.061.958.119,1.995.153,2.767.265,6.053.036,1.075.068,2.215.066,2.588.092,5.479c5.577-12.13,26.975-14.831,31.955-15.3q-.418-2.97-.9-5.979c-.153-.955-.306-1.913-.469-2.871-.017-.115-.041-.238-.058-.353-.089-.509-.18-1.019-.269-1.532l-12.552-.268Z" transform="translate(-145.357 -605.485)" fill="#171721" style="mix-blend-mode: multiply;isolation: isolate"/>
        <path id="Trazado_106860" data-name="Trazado 106860" d="M184.214,583.5s-3.964-2.7-10.865-1.35v3.483l9.187,1.086,2.016-1.2Z" transform="translate(-156.997 -551.66)" fill="#ff7a83"/>
        <path id="Trazado_106861" data-name="Trazado 106861" d="M159.855,556.693l3.495,6.622c.813,1.541,1.734,3.185,3.32,3.9a4.065,4.065,0,0,0,4.441-.811,15.644,15.644,0,0,1-5.643-5.541,17.308,17.308,0,0,0-2.03-3.191A3.641,3.641,0,0,0,159.855,556.693Z" transform="translate(-150.119 -538.806)" fill="url(#linear-gradient-19)"/>
        <path id="Trazado_106862" data-name="Trazado 106862" d="M145.23,606.383c.426,3.131.792,7.348,1.1,11.919.216,3.231.406,6.64.565,9.974,0,.063.006.128.01.19.175,3.722.316,7.34.418,10.5,0,.157.01.31.014.463.01.278.018.553.027.822.043,1.369.075,2.632.1,3.757a129.429,129.429,0,0,0,24.715,1.165c.541-.027,1.077-.059,1.618-.088q2.5-.159,4.989-.408a.308.308,0,0,0,.059,0c1-.1,2-.21,2.993-.335-.741-3.514-1.369-6.953-1.9-10.293-.184-1.159-.357-2.3-.518-3.437q-.127-.883-.243-1.757c-.357-2.647-.651-5.217-.894-7.685-.363-3.622-.614-7.029-.784-10.162a15.708,15.708,0,0,0,7.446-9.26l-5.887-9.048v0a9.281,9.281,0,0,0-3.786-3.367c-1.179-.571-2.573-1.24-3.45-1.64-.526-.239-1.053-.48-1.583-.72-2.389-1.088-4.789-2.175-6.932-3.265l-5.552,2.227a1,1,0,0,0-.094.037q-1.556.624-3.1,1.243c-2.72,1.09-5.55,2.263-7.424,4.513C143.885,595.625,144.544,601.345,145.23,606.383Z" transform="translate(-142.378 -552.646)" fill="url(#linear-gradient-20)"/>
        <path id="Trazado_106863" data-name="Trazado 106863" d="M181.972,577.772a25.477,25.477,0,0,1-10.714,1.335,15.041,15.041,0,0,0,.486-5.826.692.692,0,0,0-.007-.084,15.465,15.465,0,0,0-.5-2.474,15.346,15.346,0,0,0-2.557-5.087c4.075-.775,8.807.2,11.151,3.1a19.842,19.842,0,0,0,.151,2.46c.045.358.1.713.162,1.069q.124.692.3,1.376c.131.531.285,1.057.462,1.576A20.394,20.394,0,0,0,181.972,577.772Z" transform="translate(-154.62 -543.306)" fill="#f68895"/>
        <path id="Trazado_106864" data-name="Trazado 106864" d="M185.633,538.871a8.829,8.829,0,0,1,1.007,7.253c-.656-1.659-1.3-3.248-1.958-4.906a2.643,2.643,0,0,1-.14-2.375.763.763,0,0,1,.616-.381C185.411,538.467,185.711,538.63,185.633,538.871Z" transform="translate(-162.582 -529.585)" fill="#c5205c"/>
        <path id="Trazado_106865" data-name="Trazado 106865" d="M180.148,572.26q.124.692.3,1.376a9,9,0,0,1-2.623-.2,9.144,9.144,0,0,1-4.96-3.046,9.938,9.938,0,0,0-1.7-1.889,2.48,2.48,0,0,0-.946-.408,15.2,15.2,0,0,0-1.534-2.458c4.075-.775,8.807.2,11.151,3.1a19.842,19.842,0,0,0,.151,2.46C180.031,571.55,180.085,571.9,180.148,572.26Z" transform="translate(-154.62 -543.306)" fill="#f17785"/>
        <path id="Trazado_106866" data-name="Trazado 106866" d="M174.133,538.041a16.4,16.4,0,0,0,3.864,9.6c1.291,1.513,2.942,2.948,3.207,4.919.351,2.6-2.116,4.958-4.723,5.224s-5.138-1.078-7.095-2.82a18.041,18.041,0,0,1-5.959-12.668A19.917,19.917,0,0,1,174.133,538.041Z" transform="translate(-151.94 -529.371)" fill="#f68895"/>
        <path id="Trazado_106867" data-name="Trazado 106867" d="M189.354,564.343a5.4,5.4,0,0,0,1.988-1.031.233.233,0,0,1,.371.114,1.432,1.432,0,0,1-.131,1.175,1.678,1.678,0,0,1-1.367.783,1.253,1.253,0,0,1-.988-.682A.232.232,0,0,1,189.354,564.343Z" transform="translate(-165.068 -542.225)" fill="#f9dee4"/>
        <path id="Trazado_106868" data-name="Trazado 106868" d="M192.087,588.513l2.841,3.873A3.768,3.768,0,0,0,196,588.5l-2.234-3.2S194.1,588.446,192.087,588.513Z" transform="translate(-166.548 -553.457)" fill="#ffda99"/>
        <path id="Trazado_106869" data-name="Trazado 106869" d="M171.555,582.54a13.623,13.623,0,0,0,9.187,4.57l-2.133,4.391a14.718,14.718,0,0,1-8.78-5.86Z" transform="translate(-155.203 -552.053)" fill="#ffda99"/>
        <path id="Trazado_106870" data-name="Trazado 106870" d="M161.962,540.868a4.983,4.983,0,0,0-1.1-7.079,19.851,19.851,0,0,0,6.315-.837,6.981,6.981,0,0,0,4.455-4.3,6.527,6.527,0,0,0-.522-4.589,12.95,12.95,0,0,0-2.887-3.706c-2.624,1.427-5.227,2.9-7.851,4.324-.982.533-2.084,1.245-2.171,2.359a14.951,14.951,0,0,0,.443,2.206,3.851,3.851,0,0,1-1.136,2.629,7.873,7.873,0,0,0-1.663,2.4,4.233,4.233,0,0,0,1.649,4.418A12.308,12.308,0,0,0,161.962,540.868Z" transform="translate(-147.994 -520.358)" fill="url(#linear-gradient-21)"/>
        <path id="Trazado_106871" data-name="Trazado 106871" d="M166.072,560.721a1.075,1.075,0,0,0-1.095-.885,1.4,1.4,0,0,0-1.183.866,2.02,2.02,0,0,0,.023,1.509,3.734,3.734,0,0,0,.882,1.258,3.505,3.505,0,0,0,1.976,1.083,1.85,1.85,0,0,0,1.914-.963C167.508,562.8,166.225,562.054,166.072,560.721Z" transform="translate(-152.058 -540.48)" fill="#f68895"/>
        <path id="Trazado_106872" data-name="Trazado 106872" d="M149.239,667.418c.175,3.722.316,7.34.418,10.5,0,.157.01.31.014.463.01.278.018.553.027.822.043,1.369.075,2.632.1,3.757a129.418,129.418,0,0,0,24.715,1.165c.541-.028,1.077-.059,1.618-.088q2.5-.159,4.989-.408a.313.313,0,0,0,.059,0c1-.1,2-.21,2.993-.335-.741-3.514-1.369-6.954-1.9-10.293-.184-1.159-.357-2.3-.518-3.437q-.127-.883-.243-1.757c-.357-2.647-.651-5.216-.894-7.685A147.08,147.08,0,0,1,149.239,667.418Z" transform="translate(-144.708 -591.597)" opacity="0.25" fill="url(#linear-gradient-22)" style="mix-blend-mode: multiply;isolation: isolate"/>
        <path id="Trazado_106873" data-name="Trazado 106873" d="M211.641,612.17c2.383,3.636,7.116,6.568,11.443,8.5a2.766,2.766,0,0,0,2.144.058,3.734,3.734,0,0,0,1.714-1.525c.031-.051.045-.078.045-.078,5.336-10.072,5.981-21.8,3.781-33.138-1.288,1.155-2.973,2.082-4.259,3.237-.443,5.209-1.349,11.719-3.31,16.567-.988-.624-2.112-1.477-3.171-2.222-.326-.228-.639-.443-.945-.637A15.681,15.681,0,0,1,211.641,612.17Z" transform="translate(-176.515 -553.81)" fill="#f68895"/>
        <path id="Trazado_106874" data-name="Trazado 106874" d="M211.641,629.786c2.383,3.636,7.116,6.568,11.443,8.5a2.767,2.767,0,0,0,2.144.058,12.012,12.012,0,0,1-5.878-5.628,12.156,12.156,0,0,1,.677-11.531c-.326-.228-.639-.443-.945-.637A15.681,15.681,0,0,1,211.641,629.786Z" transform="translate(-176.515 -571.427)" fill="#f17785"/>
        <path id="Trazado_106875" data-name="Trazado 106875" d="M212.411,561.853A37.12,37.12,0,0,0,190.73,593.52a38.808,38.808,0,0,1-7.57,21.062,40.239,40.239,0,0,1-18.74-1.19c7.433-4.434,11.622-12.814,13.685-21.219s2.715-17.183,5.739-25.292a45.876,45.876,0,0,1,16.988-21.7C206.327,548.727,210.428,555.624,212.411,561.853Z" transform="translate(-152.446 -533.013)" fill="#12263f"/>
        <path id="Trazado_106876" data-name="Trazado 106876" d="M241.693,579.37a11.086,11.086,0,0,0-.767-9.881,2.51,2.51,0,0,0-3.253-.938,10.732,10.732,0,0,0-4.128,3.553,2.5,2.5,0,0,0,.022,2.8,52.409,52.409,0,0,1,4.353,7.785A30.41,30.41,0,0,1,241.693,579.37Z" transform="translate(-187.466 -544.791)" fill="#f68895"/>
        <path id="Trazado_106877" data-name="Trazado 106877" d="M140.065,624.5c.1,2.292.3,4.659.586,7.067.01.086.022.174.031.261.1.741.2,1.479.3,2.208l0,0,.053.443a4.115,4.115,0,0,0,4.087,3.635h.024a52.392,52.392,0,0,0,7.2-.533,49.983,49.983,0,0,0,6.511-1.38c.506-.151,1.006-.3,1.5-.441.484-.165.965-.327,1.437-.486.233-.082.467-.163.7-.241s.455-.178.68-.263c.445-.178.888-.353,1.32-.522a47.4,47.4,0,0,0,4.63-2.255c.633-.359,1.237-.7,1.792-1.065a13.357,13.357,0,0,0,6.481.053c.906-.261,2.483-3.7,2.487-4.641a14.065,14.065,0,0,0-1.579-6.993,33.158,33.158,0,0,1-9.164,6.878,77.857,77.857,0,0,1-17.952,1.943l.093-1.281.431-6.067,1.092-15.353.059-.82.416-5.85-4.469-1.877-.563-.237a2.127,2.127,0,0,0-1.62.386,6.57,6.57,0,0,0-1.73,1.767,16.994,16.994,0,0,0-1.673,3.071c-.08.184-.159.373-.239.565-.135.333-.267.682-.392,1.043-.047.126-.09.253-.133.382-.245.71-.484,1.467-.692,2.269s-.422,1.645-.6,2.53-.349,1.81-.49,2.769a61.577,61.577,0,0,0-.6,6.175c0,.1-.01.188-.012.282C139.971,620.021,139.979,622.224,140.065,624.5Z" transform="translate(-139.997 -559.242)" fill="#f68895"/>
        <path id="Trazado_106878" data-name="Trazado 106878" d="M140.065,631.6c.1,2.292.3,4.659.586,7.067a16.963,16.963,0,0,1,1.277-3.144,15.466,15.466,0,0,1,9.788-7.6l1.092-15.353.059-.82a7.308,7.308,0,0,0-.794-.347,14.221,14.221,0,0,0-3.99-.7,52.111,52.111,0,0,0-5.485-.08c-.047.125-.09.253-.133.382-.245.71-.484,1.467-.692,2.269s-.422,1.645-.6,2.53-.349,1.81-.49,2.769a61.579,61.579,0,0,0-.6,6.175c0,.1-.01.188-.012.282C139.971,627.126,139.979,629.328,140.065,631.6Z" transform="translate(-139.997 -566.346)" fill="#f17785"/>
        <path id="Trazado_106879" data-name="Trazado 106879" d="M145.341,596.654s-6.005,5.433-5.267,20.23c0,0,5.867,4.857,15.294,0V596.106S150.988,592.393,145.341,596.654Z" transform="translate(-140.005 -558.204)" fill="url(#linear-gradient-23)"/>
        <g id="Grupo_55410" data-name="Grupo 55410" transform="translate(10.854 24.697)">
          <path id="Trazado_106880" data-name="Trazado 106880" d="M162.161,643.041c.386-4.953.746-9.248,1.028-12.3.141-1.528.262-2.746.358-3.581a5.941,5.941,0,0,1,.2-1.285,5.887,5.887,0,0,1,.012,1.3c-.028.84-.088,2.063-.174,3.594-.168,2.995-.437,7.173-.774,11.988,1.859.052,3.808,0,5.815-.142a79.383,79.383,0,0,0,11.7-1.759,30.265,30.265,0,0,0,3.937-2.414c1.134-.807,2.091-1.564,2.87-2.2s1.38-1.147,1.794-1.493a3.35,3.35,0,0,1,.66-.507c.021.022-.164.245-.542.633s-.947.943-1.7,1.617-1.687,1.469-2.811,2.318a28.547,28.547,0,0,1-3.987,2.561l-.025.013-.031.008c-1.71.431-3.569.8-5.552,1.129s-4.085.583-6.268.743a54.761,54.761,0,0,1-6.214.114l-.328-.014Z" transform="translate(-162.136 -598.837)" fill="#fff"/>
          <path id="Trazado_106881" data-name="Trazado 106881" d="M245.1,605.743a46.155,46.155,0,0,0,1.587-6.422c.2-1.229.393-2.524.518-3.875s.216-2.753.253-4.191c.029-1.059.021-2.1,0-3.117s-.076-2.009-.143-2.97a52.727,52.727,0,0,0-.634-5.332l-.013-.071.018-.06a13.325,13.325,0,0,0,.576-3.74,10.315,10.315,0,0,0-.389-2.884,9.408,9.408,0,0,0-.692-1.747,4.061,4.061,0,0,1-.309-.6c.021-.019.2.145.451.514a7.492,7.492,0,0,1,.851,1.738,9.919,9.919,0,0,1,.533,2.972,13.2,13.2,0,0,1-.477,3.831,48.4,48.4,0,0,1,.711,5.332c.077.97.132,1.972.166,3s.036,2.08.006,3.151c-.037,1.455-.13,2.874-.269,4.239s-.34,2.676-.563,3.918a41.641,41.641,0,0,1-1.743,6.467,32.854,32.854,0,0,1-1.825,4.127,7.484,7.484,0,0,1-.874,1.405,8.585,8.585,0,0,1,.645-1.518C243.911,608.94,244.515,607.535,245.1,605.743Z" transform="translate(-203.271 -570.731)" fill="#fff"/>
        </g>
      </g>
    </g>
  </g>
</svg>
