<svg xmlns="http://www.w3.org/2000/svg" width="135" height="135" viewBox="0 0 135 135">
  <g id="Grupo_60916" data-name="Grupo 60916" transform="translate(-1143 -1006)">
    <circle id="Elipse_5056" data-name="Elipse 5056" cx="67.5" cy="67.5" r="67.5" transform="translate(1143 1006)" fill="#bf3976"/>
    <g id="Grupo_60272" data-name="Grupo 60272" transform="translate(573.399 11.744)">
      <g id="Grupo_60269" data-name="Grupo 60269" transform="translate(594.601 1019.256)">
        <path id="Trazado_107505" data-name="Trazado 107505" d="M496.427,434.739a42.7,42.7,0,1,1,42.7-42.7A42.747,42.747,0,0,1,496.427,434.739Zm0-82.187a39.487,39.487,0,1,0,39.487,39.487A39.531,39.531,0,0,0,496.427,352.552Z" transform="translate(-453.728 -349.342)" fill="#fff"/>
        <path id="Trazado_107506" data-name="Trazado 107506" d="M480.031,355.812c-.06,0-.121,0-.183-.01a33.654,33.654,0,0,0-3.828-.217,1.606,1.606,0,1,1,0-3.212,37.277,37.277,0,0,1,4.192.236,1.606,1.606,0,0,1-.181,3.2Z" transform="translate(-433.321 -346.352)" fill="#fff"/>
        <path id="Trazado_107507" data-name="Trazado 107507" d="M502.047,376.287a1.606,1.606,0,0,1-1.49-1.005,33.328,33.328,0,0,0-4.43-7.775,1.606,1.606,0,1,1,2.553-1.949,36.667,36.667,0,0,1,4.857,8.522,1.608,1.608,0,0,1-1.49,2.207ZM490.769,361.5a1.6,1.6,0,0,1-.974-.33,33.409,33.409,0,0,0-7.775-4.432,1.605,1.605,0,1,1,1.2-2.978,36.579,36.579,0,0,1,8.524,4.857,1.606,1.606,0,0,1-.975,2.882Z" transform="translate(-426.809 -345.094)" fill="#fff"/>
        <path id="Trazado_107508" data-name="Trazado 107508" d="M493.786,375.231a1.6,1.6,0,0,1-1.605-1.607,33.978,33.978,0,0,0-.217-3.826,1.6,1.6,0,1,1,3.188-.366,36.743,36.743,0,0,1,.238,4.192A1.6,1.6,0,0,1,493.786,375.231Z" transform="translate(-416.016 -330.927)" fill="#fff"/>
        <path id="Trazado_107509" data-name="Trazado 107509" d="M490.238,416.086a30.236,30.236,0,1,1,30.236-30.236A30.268,30.268,0,0,1,490.238,416.086Zm0-57.259a27.024,27.024,0,1,0,27.025,27.023A27.053,27.053,0,0,0,490.238,358.827Z" transform="translate(-447.538 -343.153)" fill="#fff"/>
        <path id="Trazado_107510" data-name="Trazado 107510" d="M473.693,375.858a6.152,6.152,0,1,1,6.154-6.152A6.159,6.159,0,0,1,473.693,375.858Zm0-9.093a2.941,2.941,0,1,0,2.942,2.94A2.945,2.945,0,0,0,473.693,366.765Z" transform="translate(-440.1 -335.322)" fill="#fff"/>
        <path id="Trazado_107511" data-name="Trazado 107511" d="M482.86,375.858a6.152,6.152,0,1,1,6.154-6.152A6.159,6.159,0,0,1,482.86,375.858Zm0-9.093a2.941,2.941,0,1,0,2.942,2.94A2.944,2.944,0,0,0,482.86,366.765Z" transform="translate(-431.056 -335.322)" fill="#fff"/>
        <path id="Trazado_107512" data-name="Trazado 107512" d="M473.693,384.23a6.153,6.153,0,1,1,6.154-6.154A6.16,6.16,0,0,1,473.693,384.23Zm0-9.095a2.941,2.941,0,1,0,2.942,2.94A2.945,2.945,0,0,0,473.693,375.135Z" transform="translate(-440.1 -327.064)" fill="#fff"/>
        <path id="Trazado_107513" data-name="Trazado 107513" d="M482.86,384.23a6.153,6.153,0,1,1,6.154-6.154A6.16,6.16,0,0,1,482.86,384.23Zm0-9.095a2.941,2.941,0,1,0,2.942,2.94A2.944,2.944,0,0,0,482.86,375.135Z" transform="translate(-431.056 -327.064)" fill="#fff"/>
      </g>
    </g>
  </g>
</svg>
